<?xml version="1.0" encoding="UTF-8"?>
<svg version="1.1" xmlns="http://www.w3.org/2000/svg" width="225" height="225">
<path d="M0 0 C8.8435071 1.79345048 17.55763832 4.17238507 26.27880859 6.47583008 C27.67751631 6.84434114 27.67751631 6.84434114 29.10448074 7.22029686 C34.02642592 8.51771896 38.94687464 9.82065237 43.86621094 11.12792969 C48.93635708 12.47400786 54.0115574 13.79991508 59.08812523 15.12153339 C63.00654659 16.14565769 66.92083271 17.18493595 70.83415604 18.2283535 C72.70409972 18.72406674 74.57557972 19.2140228 76.44858932 19.69802284 C79.06372033 20.37524706 81.67224171 21.073837 84.28027344 21.77783203 C85.04917908 21.97178055 85.81808472 22.16572906 86.61029053 22.36555481 C91.4872793 23.71351912 94.25981537 25.40633511 97.56787109 29.42504883 C99.00585938 32.34423828 99.00585938 32.34423828 100.13818359 35.53833008 C100.55970703 36.70428711 100.98123047 37.87024414 101.41552734 39.0715332 C101.83705078 40.28131836 102.25857422 41.49110352 102.69287109 42.73754883 C103.12212891 43.93573242 103.55138672 45.13391602 103.99365234 46.3684082 C104.79851702 48.61583802 105.5975739 50.86536321 106.38867188 53.11767578 C107.48440116 56.19093554 108.62043333 59.2451473 109.77078247 62.298172 C111.19398979 66.09572548 112.5776445 69.90772771 113.96630859 73.71801758 C114.61730479 75.5012373 115.26834796 77.28443988 115.91943359 79.06762695 C116.92904746 81.83380279 117.93833233 84.60009703 118.94677734 87.36669922 C119.93143595 90.06751158 120.91749218 92.76781026 121.90380859 95.46801758 C122.22017273 96.33659393 122.53653687 97.20517029 122.86248779 98.10006714 C125.04074432 104.05767057 127.32856328 109.95791763 129.7421875 115.82470703 C130.60969931 118.55677927 130.85207141 120.57881742 130.56787109 123.42504883 C128.91552734 125.74926758 128.91552734 125.74926758 126.63037109 128.11254883 C125.80408203 128.98524414 124.97779297 129.85793945 124.12646484 130.75708008 C122.85996094 132.07772461 122.85996094 132.07772461 121.56787109 133.42504883 C120.10338549 135.04450646 118.64492843 136.66943833 117.19287109 138.30004883 C111.06913626 145.10419864 104.86952227 151.83897923 98.66943359 158.57348633 C94.19806119 163.43460042 89.76266497 168.31765494 85.43505859 173.30786133 C82.59408034 176.52922161 79.68179021 179.68485914 76.77075195 182.84277344 C72.97116967 186.96820245 69.24219586 191.15278008 65.54052734 195.36645508 C64.88955078 196.04579102 64.23857422 196.72512695 63.56787109 197.42504883 C62.98908203 198.03219727 62.41029297 198.6393457 61.81396484 199.26489258 C56.64118773 201.93674441 48.72053216 198.84609673 43.27514648 197.43139648 C42.09538994 197.13116829 42.09538994 197.13116829 40.89179993 196.82487488 C38.31511274 196.16778413 35.74030518 195.50364091 33.16552734 194.83911133 C31.36014774 194.3765661 29.55468053 193.91436267 27.74913025 193.45248413 C23.97347092 192.48549741 20.1986985 191.51514363 16.42456055 190.54223633 C11.6067941 189.3004727 6.7872097 188.06594742 1.9669733 186.83381081 C-1.75960632 185.88058525 -5.48533991 184.92408748 -9.21081734 183.96656418 C-10.98665857 183.5104302 -12.76272103 183.05515656 -14.53901482 182.60078812 C-17.03018738 181.96290604 -19.52022376 181.3207601 -22.01000977 180.67749023 C-22.73184448 180.4934816 -23.4536792 180.30947296 -24.1973877 180.11988831 C-27.94173868 179.14757384 -31.65077536 178.08635841 -35.34065247 176.92349243 C-36.07809094 176.69122263 -36.81552942 176.45895283 -37.57531452 176.21964455 C-40.50195393 174.96723334 -41.26803568 173.32150867 -42.43212891 170.42504883 C-42.89006836 169.30130859 -43.34800781 168.17756836 -43.81982422 167.01977539 C-44.30522478 165.70366861 -44.78503294 164.3854904 -45.26025391 163.06567383 C-45.65923134 161.97722672 -45.65923134 161.97722672 -46.06626892 160.86679077 C-46.94305472 158.47127796 -47.81257636 156.07319568 -48.68212891 153.67504883 C-49.29533259 151.99567263 -49.90902943 150.31647643 -50.52319336 148.63745117 C-51.82127383 145.08620181 -53.11637797 141.53388728 -54.40917969 137.98071289 C-56.80171385 131.40643752 -59.20672519 124.83674582 -61.61190796 118.26708984 C-63.25741106 113.77237506 -64.90228208 109.27743469 -66.54443359 104.78149414 C-66.84934219 103.94695709 -67.15425079 103.11242004 -67.46839905 102.25259399 C-68.03347812 100.70579723 -68.59830992 99.15891009 -69.16282654 97.61190796 C-69.41822708 96.91296417 -69.67362762 96.21402039 -69.93676758 95.49389648 C-70.1821225 94.8217511 -70.42747742 94.14960571 -70.68026733 93.45709229 C-71.20063191 92.05071183 -71.73060339 90.64786253 -72.26821899 89.24798584 C-75.3076834 81.32815397 -75.3076834 81.32815397 -74.43212891 76.42504883 C-72.42417943 73.44127344 -69.94583592 70.98521993 -67.43212891 68.42504883 C-66.00923049 66.84731343 -64.59284163 65.26368928 -63.18212891 63.67504883 C-59.3194768 59.39197201 -55.42489939 55.1390149 -51.5234375 50.89135742 C-47.12555645 46.09968219 -42.77436538 41.26711108 -38.43212891 36.42504883 C-33.16581513 30.55254066 -27.87038823 24.70866109 -22.53173828 18.90185547 C-19.51599534 15.61836461 -16.52949637 12.3104779 -13.55712891 8.98754883 C-12.82494141 8.18961914 -12.09275391 7.39168945 -11.33837891 6.56958008 C-9.46465007 4.53939656 -9.46465007 4.53939656 -8.15087891 2.62426758 C-5.6395783 -0.70320573 -3.79622538 -0.74909716 0 0 Z M8.56787109 13.42504883 C6.37433972 16.11711006 6.57339322 17.49983144 6.83300781 21.015625 C7.47918854 25.70636204 8.99107311 29.89166175 10.70068359 34.28833008 C11.0156076 35.1197905 11.33053162 35.95125092 11.65499878 36.8079071 C12.65934427 39.45436195 13.67568263 42.09600725 14.69287109 44.73754883 C15.68160283 47.32968844 16.6678255 49.92277236 17.65376282 52.51597595 C18.3095753 54.23798308 18.96760342 55.95914803 19.62785339 57.67945862 C21.29270325 62.02499326 22.92080173 66.37916491 24.4831543 70.76269531 C24.79143158 71.62223312 25.09970886 72.48177094 25.41732788 73.36735535 C25.99686039 74.99019827 26.56940186 76.61556235 27.13345337 78.24385071 C30.26338359 86.98338868 34.80567103 92.28028175 43.18275452 96.39952087 C47.53100889 98.26913867 52.06982621 99.38187724 56.64599609 100.55395508 C57.69382263 100.82972885 58.74164917 101.10550262 59.82122803 101.38963318 C63.15133567 102.26390333 66.4844949 103.12583511 69.81787109 103.98754883 C72.04073602 104.56943452 74.26339443 105.15210978 76.48583984 105.7355957 C81.54262044 107.06000069 86.59991194 108.38206621 91.66369629 109.67947388 C93.7170778 110.20662872 95.76858788 110.74109871 97.81872559 111.2807312 C98.88288696 111.55643951 99.94704834 111.83214783 101.04345703 112.11621094 C102.00604431 112.36833847 102.96863159 112.620466 103.96038818 112.88023376 C108.65503424 113.86114677 111.84056461 113.48800666 116.00537109 110.92504883 C118.32433011 107.21471441 118.03244166 103.64159163 117.56787109 99.42504883 C116.58830896 95.67229731 115.22272529 92.11056022 113.80615234 88.50317383 C113.4184819 87.48132996 113.03081146 86.45948608 112.63139343 85.40667725 C111.39492777 82.15729674 110.13807829 78.91625854 108.88037109 75.67504883 C108.05413956 73.51411066 107.22925724 71.35265612 106.40576172 69.19067383 C104.83299226 65.06787914 103.2494963 60.94950586 101.65527344 56.83496094 C100.41091094 53.62170966 99.18057318 50.4048258 97.984375 47.17333984 C97.55688965 46.02534912 97.1294043 44.8773584 96.68896484 43.69458008 C96.34663818 42.75976807 96.00431152 41.82495605 95.65161133 40.86181641 C92.0600217 32.78620116 86.4941325 29.48427174 78.56787109 26.42504883 C73.99509158 24.98677037 69.37470669 23.75530568 64.73974609 22.53442383 C63.4192464 22.18188903 62.09887507 21.82887313 60.77862549 21.47540283 C58.02993147 20.74127015 55.27992231 20.01236423 52.52880859 19.28735352 C49.01040449 18.35976868 45.4954251 17.41988776 41.98130417 16.47622299 C39.26301014 15.74755842 36.54313385 15.02495441 33.82273102 14.30420685 C31.89812466 13.79328478 29.9747755 13.27763449 28.05145264 12.76190186 C26.8796344 12.45448059 25.70781616 12.14705933 24.50048828 11.83032227 C23.47284363 11.5581488 22.44519897 11.28597534 21.38641357 11.0055542 C16.08567401 9.91381696 12.96222701 10.0995903 8.56787109 13.42504883 Z M2.56787109 27.42504883 C3.56787109 29.42504883 3.56787109 29.42504883 3.56787109 29.42504883 Z M6.56787109 38.42504883 C7.56787109 40.42504883 7.56787109 40.42504883 7.56787109 40.42504883 Z M-29.04931641 44.75708008 C-31.59472546 47.82738987 -31.64138351 51.55383875 -31.43212891 55.42504883 C-30.20135576 58.23931858 -30.20135576 58.23931858 -27.43212891 59.42504883 C-23.26688016 59.62659312 -20.92066303 59.54615997 -17.58056641 57.03051758 C-14.60836773 53.91041328 -13.51133989 52.01913118 -12.93212891 47.67504883 C-13.21950632 44.28710773 -13.21950632 44.28710773 -15.43212891 41.42504883 C-21.01829539 39.64763222 -24.61350543 41.10342901 -29.04931641 44.75708008 Z M9.56787109 46.42504883 C10.56787109 48.42504883 10.56787109 48.42504883 10.56787109 48.42504883 Z M13.56787109 57.42504883 C14.56787109 59.42504883 14.56787109 59.42504883 14.56787109 59.42504883 Z M16.56787109 65.42504883 C17.56787109 67.42504883 17.56787109 67.42504883 17.56787109 67.42504883 Z M-61.74462891 74.30004883 C-62.68755962 77.21456194 -62.81278367 79.37981069 -62.43212891 82.42504883 C-60.93212891 84.92504883 -60.93212891 84.92504883 -58.43212891 86.42504883 C-54.46891814 87.11430288 -52.7398812 86.5907616 -49.18212891 84.67504883 C-45.94778418 82.07594029 -45.94778418 82.07594029 -44.43212891 78.42504883 C-43.9994351 73.79673775 -43.9994351 73.79673775 -45.43212891 69.48754883 C-52.02191425 65.98672537 -57.75170813 68.59587629 -61.74462891 74.30004883 Z M19.56787109 73.42504883 C20.56787109 75.42504883 20.56787109 75.42504883 20.56787109 75.42504883 Z M-65.43212891 75.42504883 C-64.43212891 77.42504883 -64.43212891 77.42504883 -64.43212891 77.42504883 Z M-32.43212891 79.42504883 C-34.75484778 82.7639572 -35.46657671 84.54662982 -35.30712891 88.61254883 C-34.21295654 92.17800696 -34.21295654 92.17800696 -31.43212891 94.42504883 C-27.49803533 95.03701894 -25.71034863 94.57485945 -22.18212891 92.67504883 C-18.92096775 90.00682607 -17.72171044 88.65573155 -17.18212891 84.49926758 C-16.98423118 81.11645326 -16.90023256 79.03293037 -19.18212891 76.42504883 C-24.31022715 74.14589405 -28.31847139 76.21342224 -32.43212891 79.42504883 Z M20.56787109 76.42504883 C21.56787109 78.42504883 21.56787109 78.42504883 21.56787109 78.42504883 Z M-66.43212891 78.42504883 C-65.43212891 81.42504883 -65.43212891 81.42504883 -65.43212891 81.42504883 Z M-4.80712891 87.67504883 C-6.91078801 91.23508731 -7.02439853 93.35319519 -6.43212891 97.42504883 C-5.09879557 100.09171549 -5.09879557 100.09171549 -2.43212891 101.42504883 C1.73311984 101.62659312 4.07933697 101.54615997 7.41943359 99.03051758 C10.32548828 95.9798488 11.47304117 93.93368208 12.25537109 89.73754883 C11.84214733 86.28579869 11.84214733 86.28579869 9.25537109 83.98754883 C3.76545241 80.79573564 -0.54868327 83.64073191 -4.80712891 87.67504883 Z M22.56787109 82.42504883 C23.56787109 84.42504883 23.56787109 84.42504883 23.56787109 84.42504883 Z M-66.43212891 86.42504883 C-65.43212891 88.42504883 -65.43212891 88.42504883 -65.43212891 88.42504883 Z M22.56787109 94.42504883 C23.56787109 96.42504883 23.56787109 96.42504883 23.56787109 96.42504883 Z M-63.43212891 95.42504883 C-62.43212891 97.42504883 -62.43212891 97.42504883 -62.43212891 97.42504883 Z M19.56787109 112.42504883 C17.89337232 114.24666119 16.28283445 116.11270242 14.67724609 117.99536133 C12.0778164 120.98951924 9.39020003 123.89422662 6.69287109 126.80004883 C1.59956457 132.29626932 -3.43183509 137.84395864 -8.43212891 143.42504883 C-9.97365532 145.13350872 -11.51532244 146.84184166 -13.05712891 148.55004883 C-13.79189453 149.3724707 -14.52666016 150.19489258 -15.28369141 151.04223633 C-16.67566997 152.5860671 -18.08621797 154.1134347 -19.51806641 155.62036133 C-22.24898679 158.55192076 -24.18909818 160.74996348 -25.55712891 164.55004883 C-25.38391914 168.53387335 -24.92488949 170.23985475 -22.43212891 173.42504883 C-14.76364499 177.08132423 -6.17541784 178.96991484 2.01318359 181.09692383 C3.26364471 181.42420471 4.51410583 181.7514856 5.80245972 182.08868408 C8.42852843 182.77477139 11.05568713 183.45648647 13.68359375 184.13549805 C17.02936069 185.00076149 20.37098798 185.88100299 23.71183968 186.76502609 C26.93473657 187.61470254 30.16167915 188.4485521 33.38818359 189.28442383 C34.57590363 189.5999823 35.76362366 189.91554077 36.98733521 190.24066162 C46.06854519 192.56057256 53.96846616 194.22087081 62.56787109 189.42504883 C65.06828454 187.25964366 65.06828454 187.25964366 67.56787109 184.42504883 C69.02269723 182.98399946 70.48140279 181.54686147 71.94287109 180.11254883 C75.31804632 176.7373736 78.51500319 173.27618097 81.62255859 169.65551758 C84.05510681 166.866391 86.5596396 164.14585664 89.06787109 161.42504883 C92.64397556 157.54228395 96.17012437 153.62717794 99.60693359 149.62036133 C101.23287084 147.80008896 102.89233199 146.04323304 104.59130859 144.29223633 C105.13215088 143.72754639 105.67299316 143.16285645 106.23022461 142.58105469 C107.30401853 141.46277751 108.38743208 140.35363246 109.48168945 139.25537109 C112.98409972 135.58555998 114.66271783 132.55830058 115.56787109 127.42504883 C114.40238809 123.63722908 113.46171887 121.95914363 110.04443359 119.91723633 C105.75935675 118.07802357 101.45918024 116.92565203 96.94287109 115.80004883 C95.67443359 115.47520508 95.67443359 115.47520508 94.38037109 115.14379883 C91.48626827 114.40429622 88.58860918 113.6796651 85.69033813 112.95671082 C83.62755325 112.43999876 81.56625602 111.91778928 79.50537109 111.39355469 C75.13673405 110.28349255 70.76662416 109.17934331 66.39599609 108.07714844 C64.51015344 107.60064106 62.62473547 107.12244982 60.73974609 106.64257812 C58.01688883 105.94974215 55.29256056 105.26298263 52.56787109 104.57739258 C51.72611328 104.36179184 50.88435547 104.1461911 50.01708984 103.92405701 C49.22947266 103.72707718 48.44185547 103.53009735 47.63037109 103.32714844 C46.59589844 103.06519936 46.59589844 103.06519936 45.54052734 102.79795837 C35.8468575 100.96547387 26.36000944 105.8736445 19.56787109 112.42504883 Z M-59.43212891 106.42504883 C-58.43212891 108.42504883 -58.43212891 108.42504883 -58.43212891 108.42504883 Z M-39.43212891 114.42504883 C-42.30911016 117.92746079 -41.84272722 122.11376658 -41.43212891 126.42504883 C-40.00930251 128.67968132 -40.00930251 128.67968132 -37.43212891 129.42504883 C-32.16982053 129.32937049 -29.10488864 128.20274455 -25.43212891 124.42504883 C-23.70195817 121.43657211 -23.41865361 119.76193131 -23.55712891 116.30004883 C-24.2105651 113.36935934 -24.2105651 113.36935934 -26.24462891 111.55004883 C-31.39330422 108.90215866 -35.23559874 111.3807146 -39.43212891 114.42504883 Z M-55.43212891 117.42504883 C-54.43212891 119.42504883 -54.43212891 119.42504883 -54.43212891 119.42504883 Z M-52.43212891 125.42504883 C-51.43212891 127.42504883 -51.43212891 127.42504883 -51.43212891 127.42504883 Z M-51.43212891 128.42504883 C-50.43212891 130.42504883 -50.43212891 130.42504883 -50.43212891 130.42504883 Z M-44.43212891 147.42504883 C-43.43212891 149.42504883 -43.43212891 149.42504883 -43.43212891 149.42504883 Z M-35.43212891 158.42504883 C-31.43212891 159.42504883 -31.43212891 159.42504883 -31.43212891 159.42504883 Z " fill="#080808" transform="translate(84.43212890625,12.574951171875)"/>
<path d="M0 0 C8.8435071 1.79345048 17.55763832 4.17238507 26.27880859 6.47583008 C27.67751631 6.84434114 27.67751631 6.84434114 29.10448074 7.22029686 C34.02642592 8.51771896 38.94687464 9.82065237 43.86621094 11.12792969 C48.93635708 12.47400786 54.0115574 13.79991508 59.08812523 15.12153339 C63.00654659 16.14565769 66.92083271 17.18493595 70.83415604 18.2283535 C72.70409972 18.72406674 74.57557972 19.2140228 76.44858932 19.69802284 C79.06372033 20.37524706 81.67224171 21.073837 84.28027344 21.77783203 C85.04917908 21.97178055 85.81808472 22.16572906 86.61029053 22.36555481 C91.4872793 23.71351912 94.25981537 25.40633511 97.56787109 29.42504883 C99.00585938 32.34423828 99.00585938 32.34423828 100.13818359 35.53833008 C100.55970703 36.70428711 100.98123047 37.87024414 101.41552734 39.0715332 C101.83705078 40.28131836 102.25857422 41.49110352 102.69287109 42.73754883 C103.12212891 43.93573242 103.55138672 45.13391602 103.99365234 46.3684082 C104.79851702 48.61583802 105.5975739 50.86536321 106.38867188 53.11767578 C107.48440116 56.19093554 108.62043333 59.2451473 109.77078247 62.298172 C111.19398979 66.09572548 112.5776445 69.90772771 113.96630859 73.71801758 C114.61730479 75.5012373 115.26834796 77.28443988 115.91943359 79.06762695 C116.92904746 81.83380279 117.93833233 84.60009703 118.94677734 87.36669922 C119.93143595 90.06751158 120.91749218 92.76781026 121.90380859 95.46801758 C122.22017273 96.33659393 122.53653687 97.20517029 122.86248779 98.10006714 C125.04074432 104.05767057 127.32856328 109.95791763 129.7421875 115.82470703 C130.60969931 118.55677927 130.85207141 120.57881742 130.56787109 123.42504883 C128.91552734 125.74926758 128.91552734 125.74926758 126.63037109 128.11254883 C125.80408203 128.98524414 124.97779297 129.85793945 124.12646484 130.75708008 C122.85996094 132.07772461 122.85996094 132.07772461 121.56787109 133.42504883 C120.10338549 135.04450646 118.64492843 136.66943833 117.19287109 138.30004883 C111.06913626 145.10419864 104.86952227 151.83897923 98.66943359 158.57348633 C94.19806119 163.43460042 89.76266497 168.31765494 85.43505859 173.30786133 C82.59408034 176.52922161 79.68179021 179.68485914 76.77075195 182.84277344 C72.97116967 186.96820245 69.24219586 191.15278008 65.54052734 195.36645508 C64.88955078 196.04579102 64.23857422 196.72512695 63.56787109 197.42504883 C62.98908203 198.03219727 62.41029297 198.6393457 61.81396484 199.26489258 C56.64118773 201.93674441 48.72053216 198.84609673 43.27514648 197.43139648 C42.09538994 197.13116829 42.09538994 197.13116829 40.89179993 196.82487488 C38.31511274 196.16778413 35.74030518 195.50364091 33.16552734 194.83911133 C31.36014774 194.3765661 29.55468053 193.91436267 27.74913025 193.45248413 C23.97347092 192.48549741 20.1986985 191.51514363 16.42456055 190.54223633 C11.6067941 189.3004727 6.7872097 188.06594742 1.9669733 186.83381081 C-1.75960632 185.88058525 -5.48533991 184.92408748 -9.21081734 183.96656418 C-10.98665857 183.5104302 -12.76272103 183.05515656 -14.53901482 182.60078812 C-17.03018738 181.96290604 -19.52022376 181.3207601 -22.01000977 180.67749023 C-22.73184448 180.4934816 -23.4536792 180.30947296 -24.1973877 180.11988831 C-27.94173868 179.14757384 -31.65077536 178.08635841 -35.34065247 176.92349243 C-36.07809094 176.69122263 -36.81552942 176.45895283 -37.57531452 176.21964455 C-40.50195393 174.96723334 -41.26803568 173.32150867 -42.43212891 170.42504883 C-42.89006836 169.30130859 -43.34800781 168.17756836 -43.81982422 167.01977539 C-44.30522478 165.70366861 -44.78503294 164.3854904 -45.26025391 163.06567383 C-45.65923134 161.97722672 -45.65923134 161.97722672 -46.06626892 160.86679077 C-46.94305472 158.47127796 -47.81257636 156.07319568 -48.68212891 153.67504883 C-49.29533259 151.99567263 -49.90902943 150.31647643 -50.52319336 148.63745117 C-51.82127383 145.08620181 -53.11637797 141.53388728 -54.40917969 137.98071289 C-56.80171385 131.40643752 -59.20672519 124.83674582 -61.61190796 118.26708984 C-63.25741106 113.77237506 -64.90228208 109.27743469 -66.54443359 104.78149414 C-66.84934219 103.94695709 -67.15425079 103.11242004 -67.46839905 102.25259399 C-68.03347812 100.70579723 -68.59830992 99.15891009 -69.16282654 97.61190796 C-69.41822708 96.91296417 -69.67362762 96.21402039 -69.93676758 95.49389648 C-70.1821225 94.8217511 -70.42747742 94.14960571 -70.68026733 93.45709229 C-71.20063191 92.05071183 -71.73060339 90.64786253 -72.26821899 89.24798584 C-75.3076834 81.32815397 -75.3076834 81.32815397 -74.43212891 76.42504883 C-72.42417943 73.44127344 -69.94583592 70.98521993 -67.43212891 68.42504883 C-66.00923049 66.84731343 -64.59284163 65.26368928 -63.18212891 63.67504883 C-59.3194768 59.39197201 -55.42489939 55.1390149 -51.5234375 50.89135742 C-47.12555645 46.09968219 -42.77436538 41.26711108 -38.43212891 36.42504883 C-33.16581513 30.55254066 -27.87038823 24.70866109 -22.53173828 18.90185547 C-19.51599534 15.61836461 -16.52949637 12.3104779 -13.55712891 8.98754883 C-12.82494141 8.18961914 -12.09275391 7.39168945 -11.33837891 6.56958008 C-9.46465007 4.53939656 -9.46465007 4.53939656 -8.15087891 2.62426758 C-5.6395783 -0.70320573 -3.79622538 -0.74909716 0 0 Z M8.56787109 13.42504883 C6.37433972 16.11711006 6.57339322 17.49983144 6.83300781 21.015625 C7.47918854 25.70636204 8.99107311 29.89166175 10.70068359 34.28833008 C11.0156076 35.1197905 11.33053162 35.95125092 11.65499878 36.8079071 C12.65934427 39.45436195 13.67568263 42.09600725 14.69287109 44.73754883 C15.68160283 47.32968844 16.6678255 49.92277236 17.65376282 52.51597595 C18.3095753 54.23798308 18.96760342 55.95914803 19.62785339 57.67945862 C21.29270325 62.02499326 22.92080173 66.37916491 24.4831543 70.76269531 C24.79143158 71.62223312 25.09970886 72.48177094 25.41732788 73.36735535 C25.99686039 74.99019827 26.56940186 76.61556235 27.13345337 78.24385071 C30.26338359 86.98338868 34.80567103 92.28028175 43.18275452 96.39952087 C47.53100889 98.26913867 52.06982621 99.38187724 56.64599609 100.55395508 C57.69382263 100.82972885 58.74164917 101.10550262 59.82122803 101.38963318 C63.15133567 102.26390333 66.4844949 103.12583511 69.81787109 103.98754883 C72.04073602 104.56943452 74.26339443 105.15210978 76.48583984 105.7355957 C81.54262044 107.06000069 86.59991194 108.38206621 91.66369629 109.67947388 C93.7170778 110.20662872 95.76858788 110.74109871 97.81872559 111.2807312 C98.88288696 111.55643951 99.94704834 111.83214783 101.04345703 112.11621094 C102.00604431 112.36833847 102.96863159 112.620466 103.96038818 112.88023376 C108.65503424 113.86114677 111.84056461 113.48800666 116.00537109 110.92504883 C118.32433011 107.21471441 118.03244166 103.64159163 117.56787109 99.42504883 C116.58830896 95.67229731 115.22272529 92.11056022 113.80615234 88.50317383 C113.4184819 87.48132996 113.03081146 86.45948608 112.63139343 85.40667725 C111.39492777 82.15729674 110.13807829 78.91625854 108.88037109 75.67504883 C108.05413956 73.51411066 107.22925724 71.35265612 106.40576172 69.19067383 C104.83299226 65.06787914 103.2494963 60.94950586 101.65527344 56.83496094 C100.41091094 53.62170966 99.18057318 50.4048258 97.984375 47.17333984 C97.55688965 46.02534912 97.1294043 44.8773584 96.68896484 43.69458008 C96.34663818 42.75976807 96.00431152 41.82495605 95.65161133 40.86181641 C92.0600217 32.78620116 86.4941325 29.48427174 78.56787109 26.42504883 C73.99509158 24.98677037 69.37470669 23.75530568 64.73974609 22.53442383 C63.4192464 22.18188903 62.09887507 21.82887313 60.77862549 21.47540283 C58.02993147 20.74127015 55.27992231 20.01236423 52.52880859 19.28735352 C49.01040449 18.35976868 45.4954251 17.41988776 41.98130417 16.47622299 C39.26301014 15.74755842 36.54313385 15.02495441 33.82273102 14.30420685 C31.89812466 13.79328478 29.9747755 13.27763449 28.05145264 12.76190186 C26.8796344 12.45448059 25.70781616 12.14705933 24.50048828 11.83032227 C23.47284363 11.5581488 22.44519897 11.28597534 21.38641357 11.0055542 C16.08567401 9.91381696 12.96222701 10.0995903 8.56787109 13.42504883 Z M-4.43212891 16.42504883 C-10.22335594 17.64500991 -12.88573618 19.33828176 -16.99462891 23.80004883 C-20.57964218 27.66083235 -24.01954794 30.55870468 -28.43212891 33.42504883 C-30.1435336 35.38690299 -31.81086216 37.38807266 -33.43212891 39.42504883 C-35.09879557 41.09171549 -36.76546224 42.75838216 -38.43212891 44.42504883 C-40.56138117 46.85847998 -42.19534764 48.73291896 -43.24462891 51.80004883 C-46.33942872 58.64118527 -53.46678124 63.19507503 -59.43212891 67.42504883 C-58.77212891 68.08504883 -58.11212891 68.74504883 -57.43212891 69.42504883 C-59.35789006 71.86434629 -61.23303485 74.22595477 -63.43212891 76.42504883 C-64.09212891 76.09504883 -64.75212891 75.76504883 -65.43212891 75.42504883 C-66.28956541 79.81941093 -66.52161449 83.95076959 -66.43212891 88.42504883 C-65.77212891 88.42504883 -65.11212891 88.42504883 -64.43212891 88.42504883 C-64.76212891 89.41504883 -65.09212891 90.40504883 -65.43212891 91.42504883 C-64.77212891 91.42504883 -64.11212891 91.42504883 -63.43212891 91.42504883 C-63.76212891 92.41504883 -64.09212891 93.40504883 -64.43212891 94.42504883 C-63.55298202 97.08196793 -63.55298202 97.08196793 -62.43212891 99.42504883 C-61.77212891 99.42504883 -61.11212891 99.42504883 -60.43212891 99.42504883 C-60.76212891 100.41504883 -61.09212891 101.40504883 -61.43212891 102.42504883 C-60.77212891 102.42504883 -60.11212891 102.42504883 -59.43212891 102.42504883 C-59.76212891 103.41504883 -60.09212891 104.40504883 -60.43212891 105.42504883 C-59.55298202 108.08196793 -59.55298202 108.08196793 -58.43212891 110.42504883 C-57.77212891 110.42504883 -57.11212891 110.42504883 -56.43212891 110.42504883 C-56.76212891 111.41504883 -57.09212891 112.40504883 -57.43212891 113.42504883 C-56.77212891 113.42504883 -56.11212891 113.42504883 -55.43212891 113.42504883 C-55.76212891 114.41504883 -56.09212891 115.40504883 -56.43212891 116.42504883 C-55.55298202 119.08196793 -55.55298202 119.08196793 -54.43212891 121.42504883 C-53.77212891 121.42504883 -53.11212891 121.42504883 -52.43212891 121.42504883 C-52.76212891 122.41504883 -53.09212891 123.40504883 -53.43212891 124.42504883 C-52.56563424 126.40835055 -52.56563424 126.40835055 -51.43212891 128.42504883 C-51.0642876 129.74927753 -50.72009909 131.08118795 -50.43212891 132.42504883 C-49.77212891 132.42504883 -49.11212891 132.42504883 -48.43212891 132.42504883 C-48.10212891 135.06504883 -47.77212891 137.70504883 -47.43212891 140.42504883 C-46.77212891 140.42504883 -46.11212891 140.42504883 -45.43212891 140.42504883 C-45.76212891 141.41504883 -46.09212891 142.40504883 -46.43212891 143.42504883 C-45.77212891 143.42504883 -45.11212891 143.42504883 -44.43212891 143.42504883 C-44.76212891 144.41504883 -45.09212891 145.40504883 -45.43212891 146.42504883 C-44.55298202 149.08196793 -44.55298202 149.08196793 -43.43212891 151.42504883 C-42.77212891 151.42504883 -42.11212891 151.42504883 -41.43212891 151.42504883 C-41.76212891 152.41504883 -42.09212891 153.40504883 -42.43212891 154.42504883 C-39.42955747 157.42762027 -37.75715611 158.37861637 -33.49462891 158.98754883 C-28.75429064 158.7456034 -26.65467675 156.80105133 -23.43212891 153.42504883 C-23.13048828 152.78051758 -22.82884766 152.13598633 -22.51806641 151.47192383 C-20.82058316 148.27235109 -18.08768393 146.45527716 -15.30712891 144.20629883 C-13.3547022 142.55389632 -13.3547022 142.55389632 -12.43212891 140.42504883 C-10.82775577 137.21630256 -8.0564901 135.43004685 -5.30712891 133.20629883 C-3.35503342 131.55464867 -3.35503342 131.55464867 -2.43603516 129.42895508 C-1.16865777 126.89913174 0.4421862 125.63771879 2.63037109 123.86254883 C5.90371249 121.24222377 5.90371249 121.24222377 7.56787109 117.42504883 C9.54681172 115.5484672 11.64106769 113.86544588 13.75537109 112.14379883 C15.81866015 110.45733758 15.81866015 110.45733758 16.56787109 107.42504883 C17.20724609 106.80629883 17.84662109 106.18754883 18.50537109 105.55004883 C20.73894629 103.24878953 21.68087863 101.48920462 22.56787109 98.42504883 C22.23787109 97.76504883 21.90787109 97.10504883 21.56787109 96.42504883 C22.22787109 96.42504883 22.88787109 96.42504883 23.56787109 96.42504883 C23.56787109 91.80504883 23.56787109 87.18504883 23.56787109 82.42504883 C22.90787109 82.42504883 22.24787109 82.42504883 21.56787109 82.42504883 C21.60912109 81.51754883 21.65037109 80.61004883 21.69287109 79.67504883 C21.57185535 76.52863956 21.28682978 75.00348685 19.56787109 72.42504883 C18.90787109 72.09504883 18.24787109 71.76504883 17.56787109 71.42504883 C17.58849609 70.47629883 17.60912109 69.52754883 17.63037109 68.55004883 C17.79338935 65.518386 17.79338935 65.518386 16.56787109 63.42504883 C15.90787109 63.42504883 15.24787109 63.42504883 14.56787109 63.42504883 C14.58849609 62.47629883 14.60912109 61.52754883 14.63037109 60.55004883 C14.79338935 57.518386 14.79338935 57.518386 13.56787109 55.42504883 C12.90787109 55.42504883 12.24787109 55.42504883 11.56787109 55.42504883 C11.89787109 54.43504883 12.22787109 53.44504883 12.56787109 52.42504883 C11.90787109 52.42504883 11.24787109 52.42504883 10.56787109 52.42504883 C10.58849609 51.47629883 10.60912109 50.52754883 10.63037109 49.55004883 C10.79338935 46.518386 10.79338935 46.518386 9.56787109 44.42504883 C8.90787109 44.42504883 8.24787109 44.42504883 7.56787109 44.42504883 C8.06287109 42.94004883 8.06287109 42.94004883 8.56787109 41.42504883 C7.68872421 38.76812973 7.68872421 38.76812973 6.56787109 36.42504883 C5.90787109 36.42504883 5.24787109 36.42504883 4.56787109 36.42504883 C5.06287109 34.94004883 5.06287109 34.94004883 5.56787109 33.42504883 C4.90787109 33.42504883 4.24787109 33.42504883 3.56787109 33.42504883 C3.58849609 32.47629883 3.60912109 31.52754883 3.63037109 30.55004883 C3.79338935 27.518386 3.79338935 27.518386 2.56787109 25.42504883 C1.90787109 25.42504883 1.24787109 25.42504883 0.56787109 25.42504883 C0.89787109 24.43504883 1.22787109 23.44504883 1.56787109 22.42504883 C0.57787109 22.42504883 -0.41212891 22.42504883 -1.43212891 22.42504883 C-1.55587891 21.80629883 -1.67962891 21.18754883 -1.80712891 20.55004883 C-2.30410247 18.23384051 -2.30410247 18.23384051 -4.43212891 16.42504883 Z M19.56787109 112.42504883 C17.89337232 114.24666119 16.28283445 116.11270242 14.67724609 117.99536133 C12.0778164 120.98951924 9.39020003 123.89422662 6.69287109 126.80004883 C1.59956457 132.29626932 -3.43183509 137.84395864 -8.43212891 143.42504883 C-9.97365532 145.13350872 -11.51532244 146.84184166 -13.05712891 148.55004883 C-13.79189453 149.3724707 -14.52666016 150.19489258 -15.28369141 151.04223633 C-16.67566997 152.5860671 -18.08621797 154.1134347 -19.51806641 155.62036133 C-22.24898679 158.55192076 -24.18909818 160.74996348 -25.55712891 164.55004883 C-25.38391914 168.53387335 -24.92488949 170.23985475 -22.43212891 173.42504883 C-14.76364499 177.08132423 -6.17541784 178.96991484 2.01318359 181.09692383 C3.26364471 181.42420471 4.51410583 181.7514856 5.80245972 182.08868408 C8.42852843 182.77477139 11.05568713 183.45648647 13.68359375 184.13549805 C17.02936069 185.00076149 20.37098798 185.88100299 23.71183968 186.76502609 C26.93473657 187.61470254 30.16167915 188.4485521 33.38818359 189.28442383 C34.57590363 189.5999823 35.76362366 189.91554077 36.98733521 190.24066162 C46.06854519 192.56057256 53.96846616 194.22087081 62.56787109 189.42504883 C65.06828454 187.25964366 65.06828454 187.25964366 67.56787109 184.42504883 C69.02269723 182.98399946 70.48140279 181.54686147 71.94287109 180.11254883 C75.31804632 176.7373736 78.51500319 173.27618097 81.62255859 169.65551758 C84.05510681 166.866391 86.5596396 164.14585664 89.06787109 161.42504883 C92.64397556 157.54228395 96.17012437 153.62717794 99.60693359 149.62036133 C101.23287084 147.80008896 102.89233199 146.04323304 104.59130859 144.29223633 C105.13215088 143.72754639 105.67299316 143.16285645 106.23022461 142.58105469 C107.30401853 141.46277751 108.38743208 140.35363246 109.48168945 139.25537109 C112.98409972 135.58555998 114.66271783 132.55830058 115.56787109 127.42504883 C114.40238809 123.63722908 113.46171887 121.95914363 110.04443359 119.91723633 C105.75935675 118.07802357 101.45918024 116.92565203 96.94287109 115.80004883 C95.67443359 115.47520508 95.67443359 115.47520508 94.38037109 115.14379883 C91.48626827 114.40429622 88.58860918 113.6796651 85.69033813 112.95671082 C83.62755325 112.43999876 81.56625602 111.91778928 79.50537109 111.39355469 C75.13673405 110.28349255 70.76662416 109.17934331 66.39599609 108.07714844 C64.51015344 107.60064106 62.62473547 107.12244982 60.73974609 106.64257812 C58.01688883 105.94974215 55.29256056 105.26298263 52.56787109 104.57739258 C51.72611328 104.36179184 50.88435547 104.1461911 50.01708984 103.92405701 C49.22947266 103.72707718 48.44185547 103.53009735 47.63037109 103.32714844 C46.59589844 103.06519936 46.59589844 103.06519936 45.54052734 102.79795837 C35.8468575 100.96547387 26.36000944 105.8736445 19.56787109 112.42504883 Z M-35.43212891 158.42504883 C-31.43212891 159.42504883 -31.43212891 159.42504883 -31.43212891 159.42504883 Z " fill="#2D2D2D" transform="translate(84.43212890625,12.574951171875)"/>
<path d="M0 0 C3.28252182 1.85315236 5.51203732 4.17258501 7.4375 7.4375 C8.15116822 10.68865522 7.96920581 12.81546661 7 16 C4.58478281 18.89826063 2.96089985 19.00512789 -0.8125 19.5 C-5.5755136 19.32194342 -8.62875148 17.24050758 -12 14 C-14.36728296 10.80931427 -14.40686414 7.9058957 -14 4 C-10.753697 -1.71967671 -5.92154809 -1.6343025 0 0 Z " fill="#1E1E1E" transform="translate(153,62)"/>
<path d="M0 0 C3.23203034 1.89514506 5.52151902 4.18866269 7.4375 7.4375 C8.15116822 10.68865522 7.96920581 12.81546661 7 16 C4.55368461 18.93557847 2.9602454 19.00448842 -0.875 19.4375 C-5.1837043 19.26097953 -7.70779621 17.83282651 -11 15 C-13.20744479 12.20390326 -13.93340207 10.46618551 -14.4375 6.9375 C-13.89634633 3.30403968 -12.87244551 2.21588653 -10 0 C-6.14217025 -1.28594325 -3.95337324 -0.93808857 0 0 Z " fill="#1D1D1D" transform="translate(180,78)"/>
<path d="M0 0 C3.85236591 1.21403785 5.52543629 2.61176157 8.21875 5.69921875 C9.47650823 8.35986116 10.15322696 10.75068205 10.21875 13.69921875 C8.92322587 16.74370046 8.18502261 18.21608245 5.21875 19.69921875 C-0.88192939 20.29732457 -3.92037777 19.1579163 -8.78125 15.69921875 C-11.02601004 12.94757742 -11.69887175 11.19348822 -12.28125 7.69921875 C-11.78125 4.69921875 -11.78125 4.69921875 -9.84375 1.76171875 C-6.1208951 -0.74551006 -4.31242692 -0.78342422 0 0 Z " fill="#1E1E1E" transform="translate(123.78125,45.30078125)"/>
<path d="M0 0 C2.375 1.5 2.375 1.5 4 4 C4.55601654 7.83033618 4.88245877 10.35081477 3.046875 13.78125 C0.50983807 17.05691794 -1.95708198 19.11253019 -6 20 C-9.39717566 19.86411297 -11.27714954 19.58294392 -13.9375 17.4375 C-15.50777357 13.83510769 -15.0796997 10.66951993 -14 7 C-10.41693106 1.31651133 -6.75291271 -0.84411409 0 0 Z " fill="#1F1F1F" transform="translate(141,180)"/>
<path d="M0 0 C1.875 1.125 1.875 1.125 3 3 C3.55217904 7.18078412 3.2683878 9.4632244 1.375 13.25 C-1.28728549 16.33264635 -3.14931744 17.69076793 -7 19 C-10.5191109 18.93099783 -12.24594111 18.678653 -14.875 16.3125 C-16.37478956 13.22959924 -16.47617446 11.40124615 -16 8 C-12.5127483 1.15962166 -7.68675941 -2.39143626 0 0 Z " fill="#212121" transform="translate(168,147)"/>
<path d="M0 0 C2.49584535 3.74376803 2.21374608 5.4692124 1.58984375 9.7734375 C0.61684331 13.44635307 -0.86700188 14.91133459 -4 17 C-7.08309982 17.97823844 -9.77881491 18.38990136 -13 18 C-15.625 16.0625 -15.625 16.0625 -17 13 C-17.42912256 8.46225716 -16.5593706 5.71475132 -13.75 2.125 C-8.70318842 -1.77480895 -5.98109184 -2.79117619 0 0 Z " fill="#191919" transform="translate(131,134)"/>
<path d="M0 0 C2.36539644 1.49808441 2.86618118 2.65589445 3.875 5.25 C4.05566106 9.22454322 2.94341825 11.55199987 1 15 C-2.32137087 17.94394236 -4.27135912 18.91355108 -8.6875 19.4375 C-12 19 -12 19 -13.875 17.875 C-15.53493957 15.10843406 -15.93757341 13.24618262 -16 10 C-14.64934666 6.23575312 -12.74374209 3.62313527 -9.6875 1.0625 C-6.23646439 -0.30186292 -3.67877748 -0.40875305 0 0 Z " fill="#1D1D1D" transform="translate(104,165)"/>
<path d="M0 0 C1.670625 0.061875 1.670625 0.061875 3.375 0.125 C3.375 0.785 3.375 1.445 3.375 2.125 C2.33730469 2.34027344 1.29960938 2.55554688 0.23046875 2.77734375 C-3.9709703 3.97760384 -6.46276714 6.48513832 -9.3125 9.6875 C-14.81309645 15.75898584 -14.81309645 15.75898584 -18.625 16.125 C-17.903125 15.42375 -17.18125 14.7225 -16.4375 14 C-14.51165978 12.07961542 -12.72750503 10.10031006 -11 8 C-9.26998373 5.90576978 -7.58387153 3.99059193 -5.625 2.125 C-3.625 0.125 -3.625 0.125 0 0 Z " fill="#818181" transform="translate(76.625,27.875)"/>
<path d="M0 0 C0.66 0.33 1.32 0.66 2 1 C2 4 2 4 0.42578125 5.68359375 C-0.27160156 6.26238281 -0.96898437 6.84117188 -1.6875 7.4375 C-2.41324219 8.0459375 -3.13898437 8.654375 -3.88671875 9.28125 C-8.92432432 13.37837838 -8.92432432 13.37837838 -11 15 C-11.66 14.67 -12.32 14.34 -13 14 C-12.30132813 13.39671875 -11.60265625 12.7934375 -10.8828125 12.171875 C-9.97273438 11.37265625 -9.06265625 10.5734375 -8.125 9.75 C-6.76761719 8.56664063 -6.76761719 8.56664063 -5.3828125 7.359375 C-3.2375768 5.23523998 -2.14936914 3.73428869 -1 1 C-0.67 0.67 -0.34 0.34 0 0 Z " fill="#868686" transform="translate(41,62)"/>
<path d="M0 0 C0.66 0.33 1.32 0.66 2 1 C-0.44012121 5.73670588 -3.84645486 9.67716389 -8 13 C-10.22265625 13.703125 -10.22265625 13.703125 -12 14 C-11.278125 13.29875 -10.55625 12.5975 -9.8125 11.875 C-6.14450034 8.20700034 -2.88191235 4.32286852 0 0 Z " fill="#838383" transform="translate(92,129)"/>
<path d="M0 0 C0.33 0.99 0.66 1.98 1 3 C-1.64 5.64 -4.28 8.28 -7 11 C-7.66 10.67 -8.32 10.34 -9 10 C-6.03 6.7 -3.06 3.4 0 0 Z " fill="#555555" transform="translate(163,184)"/>
<path d="M0 0 C0.86625 0.3403125 0.86625 0.3403125 1.75 0.6875 C-0.58333333 3.02083333 -2.91666667 5.35416667 -5.25 7.6875 C-5.58 6.0375 -5.91 4.3875 -6.25 2.6875 C-2.80384615 -0.38942308 -2.80384615 -0.38942308 0 0 Z " fill="#808080" transform="translate(27.25,81.3125)"/>
<path d="M0 0 C0.99 0.33 1.98 0.66 3 1 C-1.75 5.875 -1.75 5.875 -4 7 C-2.92598892 4.08482708 -2.22189824 2.22189824 0 0 Z " fill="#5B5B5B" transform="translate(131,182)"/>
<path d="M0 0 C0.66 0.33 1.32 0.66 2 1 C-0.31 3.31 -2.62 5.62 -5 8 C-5 5 -5 5 -2.5 2.3125 C-1.675 1.549375 -0.85 0.78625 0 0 Z " fill="#737373" transform="translate(121,133)"/>
<path d="" fill="#FFFFFF" transform="translate(0,0)"/>
<path d="" fill="#FFFFFF" transform="translate(0,0)"/>
<path d="" fill="#FFFFFF" transform="translate(0,0)"/>
<path d="" fill="#FFFFFF" transform="translate(0,0)"/>
<path d="" fill="#FFFFFF" transform="translate(0,0)"/>
<path d="" fill="#FFFFFF" transform="translate(0,0)"/>
<path d="" fill="#FFFFFF" transform="translate(0,0)"/>
<path d="" fill="#FFFFFF" transform="translate(0,0)"/>
<path d="" fill="#FFFFFF" transform="translate(0,0)"/>
<path d="" fill="#FFFFFF" transform="translate(0,0)"/>
<path d="" fill="#FFFFFF" transform="translate(0,0)"/>
<path d="" fill="#FFFFFF" transform="translate(0,0)"/>
<path d="" fill="#FFFFFF" transform="translate(0,0)"/>
<path d="" fill="#FFFFFF" transform="translate(0,0)"/>
<path d="" fill="#FFFFFF" transform="translate(0,0)"/>
<path d="" fill="#FFFFFF" transform="translate(0,0)"/>
<path d="" fill="#FFFFFF" transform="translate(0,0)"/>
<path d="" fill="#FFFF00" transform="translate(0,0)"/>
<path d="" fill="#FFFFFF" transform="translate(0,0)"/>
<path d="" fill="#FFFFFF" transform="translate(0,0)"/>
<path d="" fill="#FFFFFF" transform="translate(0,0)"/>
<path d="" fill="#FFFFFF" transform="translate(0,0)"/>
<path d="" fill="#FFFFFF" transform="translate(0,0)"/>
<path d="" fill="#FFFFFF" transform="translate(0,0)"/>
<path d="" fill="#FFFFFF" transform="translate(0,0)"/>
<path d="" fill="#FFFFFF" transform="translate(0,0)"/>
<path d="" fill="#FFFFFF" transform="translate(0,0)"/>
<path d="" fill="#FFFFFF" transform="translate(0,0)"/>
<path d="" fill="#FFFFFF" transform="translate(0,0)"/>
<path d="" fill="#FFFFFF" transform="translate(0,0)"/>
<path d="" fill="#FFFFFF" transform="translate(0,0)"/>
<path d="" fill="#FFFFFF" transform="translate(0,0)"/>
<path d="" fill="#FFFFFF" transform="translate(0,0)"/>
<path d="" fill="#FFFFFF" transform="translate(0,0)"/>
<path d="" fill="#FFFFFF" transform="translate(0,0)"/>
<path d="" fill="#FFFFFF" transform="translate(0,0)"/>
<path d="" fill="#FFFFFF" transform="translate(0,0)"/>
<path d="" fill="#FFFFFF" transform="translate(0,0)"/>
<path d="" fill="#FFFFFF" transform="translate(0,0)"/>
<path d="" fill="#FFFFFF" transform="translate(0,0)"/>
<path d="" fill="#FFFFFF" transform="translate(0,0)"/>
<path d="" fill="#FFFFFF" transform="translate(0,0)"/>
<path d="" fill="#FFFFFF" transform="translate(0,0)"/>
<path d="" fill="#FFFFFF" transform="translate(0,0)"/>
<path d="" fill="#FFFFFF" transform="translate(0,0)"/>
<path d="" fill="#FFFFFF" transform="translate(0,0)"/>
<path d="" fill="#FFFFFF" transform="translate(0,0)"/>
<path d="" fill="#FFFFFF" transform="translate(0,0)"/>
<path d="" fill="#FFFFFF" transform="translate(0,0)"/>
<path d="" fill="#FFFFFF" transform="translate(0,0)"/>
<path d="" fill="#FFFFFF" transform="translate(0,0)"/>
<path d="" fill="#FFFFFF" transform="translate(0,0)"/>
<path d="" fill="#FFFFFF" transform="translate(0,0)"/>
<path d="" fill="#FFFFFF" transform="translate(0,0)"/>
<path d="" fill="#FFFFFF" transform="translate(0,0)"/>
<path d="" fill="#FFFFFF" transform="translate(0,0)"/>
<path d="" fill="#FFFFFF" transform="translate(0,0)"/>
<path d="" fill="#FFFFFF" transform="translate(0,0)"/>
<path d="" fill="#FFFFFF" transform="translate(0,0)"/>
<path d="" fill="#FFFFFF" transform="translate(0,0)"/>
<path d="" fill="#FFFFFF" transform="translate(0,0)"/>
<path d="" fill="#FFFFFF" transform="translate(0,0)"/>
</svg>
